#!OML:ASF H:\Dans Jumps\Project 1\Capture day 1\Session 1\subject.ASF
:FULLY-SPECIFIED
:DEGREES
292
root 1.27229 20.6595 3.86985 1.96353 0.224416 0.173952
lowerback 5.15877 0.14153 0.925447
upperback 3.39746 0.226002 2.57184
thorax 0.594149 0.102502 2.11259
lowerneck -7.3285 -0.140071 -2.48488
upperneck 28.7638 0.565923 -1.07635
head 10.3769 -0.112093 0.111033
rclavicle -2.18663e-015 -6.36111e-015
rhumerus -26.5927 -23.4135 -76.7956
rradius 22.4007
rwrist 40.3453
rhand -22.3093 -23.9145
rfingers 7.12502
rthumb 4.11005 -53.8546
lclavicle -2.18663e-015 -6.36111e-015
lhumerus -29.6033 -4.81162 83.8275
lradius 24.6285
lwrist 19.3756
lhand -23.249 -8.91641
lfingers 7.12502
lthumb 3.20261 21.0393
rfemur -27.9876 -2.73895 18.0719
rtibia 22.8164
rfoot 9.04667 -2.6536
rtoes 7.21817
lfemur -29.0817 11.285 -22.0445
ltibia 22.8065
lfoot 13.5079 -4.42929
ltoes -10.1797
293
root 1.28956 20.4292 4.16864 1.49481 0.171831 0.355488
lowerback 4.74733 0.0932495 0.941032
upperback 3.34979 0.153116 2.57765
thorax 0.776329 0.0661179 2.1134
lowerneck -7.15394 -0.0984154 -2.49835
upperneck 29.0566 0.652406 -1.17042
head 10.4524 -0.0874043 0.0887077
rclavicle 2.18663e-015 -3.97569e-015
rhumerus -26.9899 -23.261 -76.6318
rradius 22.4005
rwrist 40.2303
rhand -22.3127 -23.8855
rfingers 7.12502
rthumb 4.10681 -53.8257
lclavicle 2.18663e-015 -3.97569e-015
lhumerus -30.2313 -5.35052 83.8485
lradius 25.081
lwrist 19.716
lhand -23.0024 -8.76713
lfingers 7.12502
lthumb 3.44077 21.1848
rfemur -27.837 -2.39364 17.6074
rtibia 22.1385
rfoot 9.63084 -2.49946
rtoes 7.54762
lfemur -28.2309 11.6399 -22.3137
ltibia 21.0101
lfoot 14.0644 -4.81961
ltoes -10.4669
294
root 1.30706 20.1875 4.46883 0.989864 0.123937 0.544683
lowerback 4.32072 0.0433527 0.957349
upperback 3.29708 0.0776412 2.58195
thorax 0.962115 0.0284843 2.11162
lowerneck -6.99247 -0.0532622 -2.52009
upperneck 29.3619 0.747778 -1.26848
head 10.5357 -0.0603664 0.0671543
rclavicle -3.37934e-015 -1.11319e-014
rhumerus -27.3634 -23.1006 -76.4705
rradius 22.4221
rwrist 40.0749
rhand -22.3247 -23.8791
rfingers 7.12502
rthumb 4.0952 -53.8195
lclavicle -3.37934e-015 -1.11319e-014
lhumerus -30.8402 -5.90645 83.8629
lradius 25.5307
lwrist 20.0579
lhand -22.7388 -8.61473
lfingers 7.12502
lthumb 3.69533 21.333
rfemur -27.6539 -2.09042 17.1528
rtibia 21.6149
rfoot 10.2608 -2.27122
rtoes 7.99725
lfemur -27.358 12.0026 -22.5715
ltibia 19.5391
lfoot 14.6864 -5.17607
ltoes -10.647
295
root 1.32454 19.9344 4.77004 0.441903 0.087886 0.730726
lowerback 3.88351 -0.00822446 0.982357
upperback 3.24484 -0.000347714 2.58642
thorax 1.15465 -0.0102496 2.10449
lowerneck -6.84933 -0.00955907 -2.56175
upperneck 29.6666 0.840276 -1.3465
head 10.623 -0.0348458 0.0557626
rclavicle -1.98785e-015 2.06736e-014
rhumerus -27.7127 -22.9431 -76.3107
rradius 22.463
rwrist 39.8919
rhand -22.3567 -23.8752
rfingers 7.12502
rthumb 4.06437 -53.8162
lclavicle -1.98785e-015 2.06736e-014
lhumerus -31.4216 -6.42685 83.8515
lradius 25.9853
lwrist 20.3741
lhand -22.4705 -8.45774
lfingers 7.12502
lthumb 3.95446 21.4853
rfemur -27.4215 -1.83859 16.7267
rtibia 21.257
rfoot 10.9327 -1.98757
rtoes 8.53406
lfemur -26.4408 12.3218 -22.7904
ltibia 18.3869
lfoot 15.3899 -5.46632
ltoes -10.6279
296
root 1.34146 19.6691 5.07132 -0.147176 0.0686213 0.905643
lowerback 3.45445 -0.0624242 1.01192
upperback 3.18773 -0.0817149 2.59562
thorax 1.33797 -0.0505858 2.09898
lowerneck -6.7276 0.0297556 -2.61308
upperneck 29.9699 0.927222 -1.41642
head 10.7145 -0.0123556 0.0482487
rclavicle -1.86858e-014 -1.35174e-014
rhumerus -28.042 -22.7967 -76.1491
rradius 22.525
rwrist 39.702
rhand -22.3989 -23.8927
rfingers 7.12502
rthumb 4.02359 -53.8344
lclavicle -1.86858e-014 -1.35174e-014
lhumerus -31.9576 -6.91201 83.8155
lradius 26.4127
lwrist 20.6843
lhand -22.2314 -8.34563
lfingers 7.12502
lthumb 4.18528 21.593
rfemur -27.1364 -1.61208 16.3351
rtibia 21.078
rfoot 11.6152 -1.70206
rtoes 9.08243
lfemur -25.4706 12.5408 -22.9465
ltibia 17.545
lfoot 16.1387 -5.65268
ltoes -10.4373
297
root 1.35734 19.391 5.37157 -0.779192 0.0749357 1.0647
lowerback 3.05544 -0.120777 1.04069
upperback 3.12804 -0.168149 2.61084
thorax 1.50222 -0.0934757 2.09945
lowerneck -6.64676 0.0632338 -2.66985
upperneck 30.2605 1.00614 -1.47782
head 10.81 0.00650216 0.0438542
rclavicle -2.88238e-015 2.78299e-014
rhumerus -28.3413 -22.6639 -75.9907
rradius 22.6037
rwrist 39.5276
rhand -22.4672 -23.9138
rfingers 7.12502
rthumb 3.9576 -53.8568
lclavicle -2.88238e-015 2.78299e-014
lhumerus -32.4373 -7.3132 83.7348
lradius 26.8239
lwrist 20.9511
lhand -22.0375 -8.25297
lfingers 7.12502
lthumb 4.37253 21.6819
rfemur -26.7914 -1.38976 15.9803
rtibia 21.0915
rfoot 12.2646 -1.44609
rtoes 9.50303
lfemur -24.4447 12.6066 -23.0231
ltibia 17.0113
lfoot 16.8627 -5.71425
ltoes -10.2302
